# xmcd
#
# Track frame offsets:
#	150
#	18115
#	34190
#	46907
#	64870
#	74600
#	97465
#	110002
#	127862
#	141862
#	156595
#	173897
#
# Disc length: 2681 seconds
#
# Revision: 3
# Processed by: cddbd v1.5.1PL0 Copyright (c) Steve Scherf et al.
# Submitted via: audiograbber 1.83.01
#
DISCID=b00a770c
DTITLE=Sonny Terry and Brownie McGhee - Sonny and Brownie
DYEAR=1973
DGENRE=Folk-Blues
TTITLE0=People Get Ready
TTITLE1=Bring It On Home To Me
TTITLE2=You Bring Out The Boogie In Me
TTITLE3=Sail Away
TTITLE4=Sonny's Thing
TTITLE5=White Boy Lost In The Blues
TTITLE6=The Battle Is Over
TTITLE7=Walkin' My Blues Away
TTITLE8=Big Wind
TTITLE9=Jesus Gonna' Make It Alright
TTITLE10=God And Man
TTITLE11=On The Road Again
EXTD=
EXTT0=
EXTT1=
EXTT2=
EXTT3=
EXTT4=
EXTT5=
EXTT6=
EXTT7=
EXTT8=
EXTT9=
EXTT10=
EXTT11=
PLAYORDER=
